<svg version="1.1" id="Layer_1" xmlns="http://www.w3.org/2000/svg" xmlns:xlink="http://www.w3.org/1999/xlink" x="0px" y="0px"
	 width="720px" height="340px" viewBox="130 100 450 120" xml:space="preserve">
<path fill="#941C80" d="M230.198,87.958c0-0.677,0.179-1.218,0.536-1.625c0.354-0.403,0.886-0.606,1.6-0.606h30.986
	c2.235,0,4.337,0.31,6.307,0.923c1.972,0.612,3.783,1.461,5.434,2.544c1.646,1.082,3.136,2.376,4.462,3.878
	c1.321,1.505,2.449,3.128,3.369,4.874c0.925,1.746,1.625,3.58,2.11,5.507c0.485,1.921,0.729,3.873,0.729,5.84
	c0,2.912-0.528,5.757-1.578,8.538c-1.05,2.778-2.548,5.253-4.484,7.42c-1.942,2.166-4.271,3.923-6.984,5.261
	c-2.716,1.343-5.727,2.027-9.023,2.063h-14.694v23.083c0,1.39-0.744,2.085-2.227,2.085h-14.407c-0.645,0-1.166-0.168-1.552-0.509
	c-0.388-0.339-0.584-0.864-0.584-1.576V87.958z M266.717,109.199c0-0.97-0.168-1.942-0.508-2.912
	c-0.341-0.97-0.833-1.833-1.482-2.589c-0.642-0.765-1.429-1.388-2.351-1.873c-0.92-0.485-1.959-0.726-3.128-0.726h-10.28v16.199
	h10.28c1.169,0,2.216-0.233,3.156-0.704c0.937-0.47,1.718-1.074,2.349-1.819c0.63-0.74,1.116-1.601,1.457-2.57
	C266.549,111.234,266.717,110.234,266.717,109.199"/>
<path fill="#941C80" d="M306.679,87.618c0.03-0.19,0.138-0.405,0.313-0.63c0.176-0.226,0.397-0.435,0.657-0.63
	c0.259-0.194,0.532-0.347,0.827-0.463c0.289-0.11,0.565-0.168,0.821-0.168h12.416c0.554,0,1.02,0.168,1.406,0.509
	c0.388,0.34,0.679,0.638,0.875,0.894l1.21,2.767l25.463,65.667c0.256,0.646,0.209,1.173-0.146,1.576
	c-0.36,0.403-0.97,0.604-1.841,0.604h-13.922c-0.74,0-1.319-0.134-1.72-0.412c-0.409-0.274-0.722-0.733-0.948-1.382
	c-0.646-1.651-1.276-3.287-1.89-4.921c-0.616-1.636-1.231-3.274-1.847-4.921h-25.748c-0.616,1.647-1.239,3.285-1.869,4.921
	c-0.63,1.634-1.251,3.27-1.867,4.921c-0.42,1.199-1.246,1.794-2.472,1.794h-14.308c-0.616,0-1.123-0.161-1.528-0.485
	c-0.405-0.321-0.478-0.806-0.218-1.455L306.679,87.618z M315.504,108.375c-0.612,1.649-1.235,3.427-1.866,5.333
	c-0.628,1.91-1.251,3.832-1.867,5.772c-0.615,1.941-1.238,3.855-1.867,5.747c-0.63,1.89-1.253,3.664-1.865,5.312h14.884
	L315.504,108.375z"/>
<path fill="#941C80" d="M372.175,112.303l11.707-25.069c0.198-0.394,0.358-0.673,0.485-0.853c0.135-0.179,0.261-0.306,0.392-0.39
	c0.127-0.081,0.266-0.129,0.407-0.146c0.149-0.015,0.32-0.052,0.515-0.118h18.669c0.224,0,0.41,0.073,0.56,0.218
	c0.142,0.144,0.217,0.317,0.217,0.504c0,0.36-0.225,0.765-0.68,1.218l-22.981,40.688v27.108c0,1.52-0.746,2.281-2.231,2.281h-14.509
	c-0.646,0-1.146-0.204-1.5-0.608c-0.355-0.401-0.531-0.962-0.531-1.673V128.26l-22.937-40.591c-0.425-0.423-0.63-0.828-0.63-1.218
	c0-0.187,0.06-0.36,0.19-0.504c0.131-0.146,0.306-0.218,0.532-0.218h18.673c0.226,0.065,0.406,0.103,0.531,0.118
	c0.135,0.017,0.263,0.065,0.39,0.146c0.13,0.084,0.255,0.21,0.39,0.39c0.129,0.179,0.306,0.459,0.532,0.853L372.175,112.303z"/>
<path fill="#941C80" d="M229.834,169.794c0-0.582,0.175-1.085,0.535-1.505c0.351-0.419,0.886-0.63,1.601-0.63h15.854
	c0.456,0,0.921,0.114,1.411,0.339c0.485,0.226,0.901,0.612,1.255,1.166c4.108,6.624,8.184,13.156,12.223,19.591
	c4.042,6.434,8.133,12.966,12.271,19.594v-38.845c0.13-0.583,0.39-1.035,0.776-1.36c0.39-0.324,0.841-0.485,1.36-0.485h13.822
	c0.679,0,1.241,0.187,1.696,0.558c0.456,0.375,0.681,0.897,0.681,1.578v67.994c0,0.646-0.196,1.123-0.582,1.429
	c-0.39,0.311-0.92,0.459-1.601,0.459h-15.472c-0.421,0-0.791-0.146-1.115-0.437c-0.325-0.287-0.666-0.679-1.017-1.16
	c-4.298-7.114-8.555-14.146-12.756-21.094c-4.203-6.954-8.471-13.988-12.802-21.102v41.658c0,0.713-0.164,1.246-0.489,1.604
	c-0.321,0.354-0.903,0.529-1.746,0.529H231.97c-0.75,0-1.283-0.201-1.625-0.604c-0.339-0.402-0.511-0.895-0.511-1.48V169.794z"/>
<path fill="#941C80" d="M425.044,238.657c-0.324-0.548-0.63-1.115-0.921-1.697s-0.549-1.16-0.776-1.746
	c-4.171-10.991-8.323-21.885-12.465-32.686c-4.137-10.797-8.293-21.696-12.461-32.687c0-0.164-0.025-0.306-0.07-0.435
	c-0.053-0.131-0.075-0.257-0.075-0.39c0-0.905,0.597-1.356,1.795-1.356h15.613c1.231,0,2.07,0.612,2.522,1.841l14.841,44.182
	l13.722-44.182c0.455-1.229,1.343-1.841,2.671-1.841h15.759c0.746,0,1.269,0.138,1.578,0.409c0.307,0.278,0.459,0.638,0.459,1.097
	c0,0.255-0.015,0.435-0.048,0.53v0.146l-8.63,24.733l6.499,19.061l15.711-44.133c0.451-1.229,1.347-1.841,2.667-1.841h15.277
	c0.743,0,1.27,0.138,1.571,0.409c0.306,0.278,0.463,0.638,0.463,1.097c0,0.255-0.016,0.435-0.045,0.53v0.146
	c-2.201,5.693-4.447,11.366-6.742,17.02c-2.294,5.661-4.6,11.319-6.913,16.977c-2.309,5.658-4.611,11.327-6.879,16.998
	c-2.283,5.671-4.507,11.342-6.671,17.001c-0.135,0.354-0.426,0.75-0.877,1.187s-1.003,0.652-1.652,0.652h-0.142h-11.737
	c-0.709,0-1.25-0.134-1.627-0.41c-0.365-0.276-0.634-0.642-0.798-1.089L449,218c-1.098,2.94-2.179,5.828-3.246,8.655
	c-1.067,2.836-2.134,5.716-3.201,8.659c-0.164,0.452-0.347,0.93-0.56,1.43c-0.209,0.5-0.463,0.97-0.75,1.402
	c-0.291,0.44-0.623,0.802-0.996,1.09c-0.369,0.298-0.799,0.439-1.283,0.439h-0.149h-11.733
	C426.048,239.676,425.369,239.337,425.044,238.657"/>
<g>
	<defs>
		<path id="SVGID_1_" d="M318.284,161.619c-22.325,17.404-26.33,49.718-8.932,72.047c9.795,12.568,24.564,19.776,40.519,19.776
			c11.518,0,22.417-3.745,31.519-10.845c10.797-8.413,17.677-20.554,19.371-34.173c1.689-13.623-2.015-27.076-10.432-37.871
			c-2.172-2.789-4.634-5.355-7.312-7.625c-0.563-0.485-1.283-0.748-2.019-0.748c-0.996,0-1.943,0.485-2.544,1.302l-28.382,38.979
			l-14.218-17.387c-0.573-0.703-1.392-1.104-2.239-1.104c-0.914,0-1.757,0.447-2.328,1.231l-6.042,8.293
			c-0.955,1.315-0.899,3.252,0.129,4.509l23.086,28.216c0.573,0.705,1.392,1.108,2.239,1.108c0.914,0,1.761-0.455,2.328-1.231
			l29.669-40.749c7.979,15.609,3.842,34.922-10.193,45.854c-6.534,5.096-14.361,7.797-22.632,7.797
			c-11.465,0-22.083-5.186-29.123-14.218c-6.048-7.757-8.706-17.421-7.495-27.205c1.218-9.788,6.157-18.509,13.914-24.553
			c6.543-5.1,14.375-7.793,22.642-7.793c5.055,0,9.952,0.993,14.544,2.953c1.494,0.642,3.408,0.117,4.349-1.177l4.79-6.577
			c0.537-0.743,0.72-1.659,0.511-2.511c-0.209-0.843-0.802-1.559-1.604-1.951c-7.046-3.443-14.644-5.189-22.59-5.189
			C338.29,150.775,327.387,154.528,318.284,161.619"/>
	</defs>
	<clipPath id="SVGID_2_">
		<use xlink:href="#SVGID_1_"  overflow="visible"/>
	</clipPath>
	
		<linearGradient id="SVGID_3_" gradientUnits="userSpaceOnUse" x1="-96.3184" y1="806.7168" x2="-92.4986" y2="806.7168" gradientTransform="matrix(-23.2685 23.1203 23.1203 23.2685 -20492.9141 -16394.2812)">
		<stop  offset="0" style="stop-color:#E83662"/>
		<stop  offset="1" style="stop-color:#9B1D82"/>
	</linearGradient>
	<polygon clip-path="url(#SVGID_2_)" fill="url(#SVGID_3_)" points="453.782,202.438 346.849,308.688 240.622,201.782 
		347.556,95.529 	"/>
</g>
</svg>
